<svg width="15" height="15" fill="none" xmlns="http://www.w3.org/2000/svg"><g clip-path="url(#clip0)" fill="#0749AA"><path d="M7.5 15c4.135 0 7.5-3.364 7.5-7.5 0-.714-.1-1.417-.297-2.09a.625.625 0 10-1.2.35A6.257 6.257 0 017.5 13.75 6.257 6.257 0 011.25 7.5 6.257 6.257 0 017.5 1.25a6.21 6.21 0 013.485 1.059.625.625 0 00.699-1.037A7.453 7.453 0 007.5 0C3.365 0 0 3.364 0 7.5S3.365 15 7.5 15z"/><path d="M13.933 1.433L7.5 7.866 5.442 5.808a.625.625 0 00-.884.884l2.5 2.5a.622.622 0 00.884 0l6.875-6.875a.625.625 0 00-.884-.884z"/></g><defs><clipPath id="clip0"><path fill="#fff" d="M0 0h15v15H0z"/></clipPath></defs></svg>