<svg viewBox="0 0 53 54" xmlns="http://www.w3.org/2000/svg" xmlns:xlink="http://www.w3.org/1999/xlink"><style>:root&gt;svg{display:none}:root&gt;svg:target{display:block}</style><svg fill="none" viewBox="0 0 47 47" id="advertising" xmlns="http://www.w3.org/2000/svg"><g clip-path="url(#aclip0)"><path d="M17.177 33.61l2.301 2.322c.84.848.65 2.26-.383 2.857l-1.858 1.073-5.426-5.36 5.366-.893z" fill="#F9F9F9"/><path d="M15.972 45.383l-8.374-8.45 4.213-2.431 7.502 7.57a2.352 2.352 0 11-3.341 3.311zm2.657-34.32L6.67 25.598l5.14 8.903 18.568-3.088-11.75-20.35z" fill="#0749AA"/><path d="M33.204 31.901a2.203 2.203 0 01-3.01-.806L18.813 11.381a2.203 2.203 0 013.816-2.203L34.01 28.892a2.203 2.203 0 01-.806 3.01zm-21.394 2.6l-3.179 1.836a5.14 5.14 0 01-5.14-8.903l3.18-1.836 5.14 8.903z" fill="#0749AA"/><path d="M31.05 21.928a.918.918 0 10-1.59.918l3.755 6.505c.172.297.218.643.129.975a1.277 1.277 0 01-.599.78 1.276 1.276 0 01-.975.129 1.276 1.276 0 01-.78-.599L19.607 10.921a1.276 1.276 0 01-.128-.975c.089-.331.301-.608.599-.78.297-.172.643-.217.975-.128.331.089.609.301.78.598l3.496 6.056a.918.918 0 001.59-.918l-3.496-6.055a3.125 3.125 0 00-4.263-1.143 3.1 3.1 0 00-1.454 1.895c-.12.446-.139.902-.062 1.343L6.067 24.886 3.032 26.64a6.018 6.018 0 00-2.823 3.678 6.019 6.019 0 00.605 4.598 6.018 6.018 0 003.679 2.822 5.98 5.98 0 002.709.1l8.118 8.192a3.269 3.269 0 003.958.53 3.248 3.248 0 001.606-2.398 3.248 3.248 0 00-.919-2.736l-1.31-1.322.899-.52a2.719 2.719 0 001.345-2.007 2.719 2.719 0 00-.769-2.29l-1.052-1.063L30.1 32.39a3.14 3.14 0 002.007.726 3.1 3.1 0 001.555-.419 3.1 3.1 0 001.454-1.895 3.1 3.1 0 00-.312-2.368l-3.755-6.505zM2.404 33.997a4.227 4.227 0 011.546-5.768l2.384-1.377 4.223 7.313-2.386 1.378a4.227 4.227 0 01-5.767-1.546zm16.66 9.92a1.435 1.435 0 01-2.44.82l-7.536-7.604 2.569-1.483 7.004 7.068c.316.318.463.755.403 1.2zm-.238-7.34c.198.201.29.476.253.756a.895.895 0 01-.443.66l-1.318.761-3.606-3.638 3.147-.524 1.967 1.986zm-6.538-3.085L7.783 25.69l10.713-13.022 10.425 18.057-16.633 2.767zM29.503 9.375a.917.917 0 001.268-.275l4.945-7.683a.918.918 0 10-1.544-.993l-4.944 7.683a.918.918 0 00.275 1.268zm16.578 12.489H35.892a.918.918 0 100 1.836h10.19a.918.918 0 100-1.836z" fill="#0749AA"/><path d="M26.283 21.025a.925.925 0 00.649-.269.925.925 0 00.269-.649.925.925 0 00-.27-.649.925.925 0 00-.648-.268.925.925 0 00-.65.268.925.925 0 00-.268.65.923.923 0 00.918.918z" fill="#fff"/></g><defs><clipPath id="aclip0"><path fill="#fff" d="M0 0h47v47H0z"/></clipPath></defs></svg><svg fill="none" viewBox="0 0 38 44" id="bag" xmlns="http://www.w3.org/2000/svg"><path d="M21.993 29.228a2.09 2.09 0 00-.587-.427c-.468-.244-.98-.392-1.488-.525v3.936c.825-.093 1.771-.393 2.204-1.162.207-.368.248-.82.164-1.229a1.235 1.235 0 00-.293-.593zm.125 1.828l.004-.006-.004.006zm-6.067-8.12c-.141.207-.23.442-.255.692-.024.25-.01.529.084.765.091.224.28.39.477.524.22.15.461.266.707.365.207.083.44.163.69.24V21.96c-.633.135-1.324.423-1.703.976z" fill="#0749AA"/><path d="M22.138 31.02l-.016.028.016-.027zm.022-.036c0-.002 0-.002 0 0z" fill="#0749AA"/><path d="M21.305 9.574C24.652 6.762 26.889.427 25.512.15c-1.829-.368-5.8 1.247-7.72 1.531-2.722.33-5.687-2.952-7.352-1.123-1.353 1.487.97 6.894 4.606 9.25-10.846 5.33-26.09 32.09.504 34.031 36.798 2.687 18.372-29.071 5.755-34.265zm3.16 21.103a3.869 3.869 0 01-1.492 2.627c-.873.676-1.967.99-3.055 1.079v1.153c0 .308-.134.606-.365.81-.318.281-.784.35-1.17.173a1.092 1.092 0 01-.63-.983v-1.26a7.1 7.1 0 01-.554-.128c-1.016-.28-1.959-.823-2.647-1.629a4.772 4.772 0 01-.951-1.74c-.036-.12-.073-.241-.086-.366a1.084 1.084 0 011.173-1.187c.425.038.798.332.931.737.042.125.07.253.116.377.046.122.101.241.166.355.129.223.29.43.475.608.383.368.87.608 1.378.75v-4.282c-.993-.257-2.018-.59-2.838-1.227a3.302 3.302 0 01-.958-1.15c-.234-.482-.33-1.018-.335-1.55a3.692 3.692 0 01.325-1.569c.21-.461.515-.875.888-1.218.797-.734 1.856-1.143 2.918-1.294v-1.196c0-.309.135-.607.365-.811.318-.28.784-.35 1.17-.173.38.175.63.565.63.984v1.19c.14.017.282.039.422.064 1.043.19 2.064.62 2.826 1.372a4.131 4.131 0 011.018 1.639c.041.126.083.255.102.386a1.084 1.084 0 01-1.118 1.24 1.092 1.092 0 01-.963-.693c-.045-.118-.068-.243-.114-.361a1.909 1.909 0 00-.177-.341 2.063 2.063 0 00-.511-.536c-.434-.32-.96-.488-1.486-.58v4.097c.625.15 1.25.313 1.849.55.905.356 1.762.903 2.256 1.766a5.514 5.514 0 01.003.004c.15.265.078.139.003.006.393.692.522 1.52.436 2.307zm-2.36.401l-.015.027.015-.027z" fill="#0749AA"/></svg><svg fill="none" viewBox="0 0 43 36" id="crone" xmlns="http://www.w3.org/2000/svg"><path d="M34.79 33.85c0 .68-.55 1.233-1.231 1.233H9.24c-.68 0-1.232-.552-1.232-1.233v-2.629c0-.68.552-1.232 1.232-1.232h24.32c.68 0 1.232.552 1.232 1.232v2.63zM43 10.458a2.442 2.442 0 00-2.44-2.44 2.442 2.442 0 00-2.44 2.44c0 .439.118.85.322 1.205l-10.888 4.355-4.18-8.36a4.054 4.054 0 002.213-3.608A4.055 4.055 0 0021.537 0a4.055 4.055 0 00-4.05 4.05c0 1.572.9 2.937 2.212 3.608l-4.18 8.36-10.946-4.379c.195-.35.306-.752.306-1.18a2.442 2.442 0 00-2.44-2.44A2.442 2.442 0 000 10.459c0 .988.592 1.84 1.44 2.222l5.48 13.58c.188.465.64.77 1.143.77h27.111c.508 0 .963-.31 1.148-.783l5.33-13.61A2.44 2.44 0 0043 10.457z" fill="#0749AA"/></svg><svg fill="none" viewBox="0 0 39 39" id="like" xmlns="http://www.w3.org/2000/svg"><path d="M4.062 17.063A4.068 4.068 0 000 21.125v13a4.068 4.068 0 004.062 4.063h4.875c.915 0 1.757-.31 2.438-.823V17.062H4.062zM39 23.156c0-.976-.387-1.886-1.058-2.558a4.035 4.035 0 001.04-3.102c-.19-2.065-2.05-3.684-4.238-3.684H24.706c.498-1.51 1.294-4.277 1.294-6.5 0-3.524-2.995-6.5-4.875-6.5-1.688 0-2.894.951-2.946.99a.817.817 0 00-.304.635v5.51l-4.68 10.14-.195.098v17.417c1.323.624 2.996.96 4.063.96h14.915c1.77 0 3.319-1.192 3.683-2.838.186-.847.078-1.7-.294-2.441a3.64 3.64 0 001.626-4.877A3.638 3.638 0 0039 23.156z" fill="#0749AA"/></svg><svg fill="none" viewBox="0 0 53 54" id="startup" xmlns="http://www.w3.org/2000/svg"><g clip-path="url(#eclip0)" fill="#0749AA"><path d="M26.07 25.711a.72.72 0 100 1.44.72.72 0 000-1.44zm0-12.961c-1.99 0-3.6 1.61-3.6 3.6 0 1.985 1.615 3.6 3.6 3.601 1.985 0 3.6-1.615 3.6-3.6 0-1.99-1.61-3.601-3.6-3.601zm2.16 3.6c0 1.191-.969 2.16-2.16 2.16a2.16 2.16 0 112.16-2.16z"/><path d="M26.07 1.228a.72.72 0 00-.527.23c-.111.12-2.742 2.97-4.85 7.38-1.688 3.534-2.545 7.03-2.545 10.393 0 .753.033 1.52.098 2.285-2.641.684-3.667 2.323-4.058 3.615-.901 2.977.716 6.995 2.731 9.01a.72.72 0 001.23-.51c0-2.044 1.325-3.242 1.791-3.6h.357a25.321 25.321 0 001.632 3.315c.217.367.552.65.946.822a6.817 6.817 0 00-.406 2.345c0 2.621 2.929 6.082 3.053 6.228a.72.72 0 001.096 0c.124-.146 3.052-3.607 3.052-6.228a6.82 6.82 0 00-.405-2.344c.417-.182.74-.476.946-.824a25.328 25.328 0 001.632-3.313h.357c.466.358 1.791 1.555 1.791 3.6a.72.72 0 001.23.51c2.015-2.016 3.632-6.034 2.73-9.01-.39-1.293-1.416-2.932-4.057-3.616.064-.766.097-1.532.097-2.286 0-3.362-.856-6.858-2.545-10.391-2.107-4.41-4.738-7.262-4.85-7.381a.72.72 0 00-.526-.23zm-9.108 30.68c-1.214-1.847-1.975-4.446-1.396-6.36.388-1.278 1.342-2.145 2.84-2.583.26 1.91.711 3.795 1.348 5.627-.013.002-.22-.021-.428.11-.086.055-1.723 1.112-2.364 3.206zm11.268 4.605c0 1.4-1.273 3.412-2.16 4.6-.887-1.188-2.16-3.2-2.16-4.6 0-.784.157-1.536.446-2.16h3.427c.29.624.447 1.376.447 2.16zm.742-3.901c-.11.185-.336.3-.59.3h-4.624c-.254 0-.48-.115-.59-.3a23.372 23.372 0 01-1.309-2.58h8.421a23.357 23.357 0 01-1.308 2.58zm7.601-7.063c.58 1.913-.181 4.512-1.396 6.358-.43-1.406-1.492-2.683-2.379-3.213-.206-.124-.396-.099-.412-.103a29.122 29.122 0 001.348-5.626c1.498.438 2.452 1.305 2.84 2.584zm-4.022-6.319c0 .918-.05 1.855-.151 2.786a27.668 27.668 0 01-1.543 6.576h-9.574a27.662 27.662 0 01-1.543-6.576 26.19 26.19 0 01-.151-2.786c0-3.017.746-6.164 2.214-9.36h8.533c1.469 3.196 2.215 6.343 2.215 9.36zM29.63 8.43h-7.12a32.374 32.374 0 013.559-5.377 32.368 32.368 0 013.559 5.377z"/><path d="M23.416 38.923v-4.146l.732-.732h4.146l.488 1.463-.488 2.683-.976 1.952-1.707 1.707-.976-.732-1.22-2.195zm9.854-3.131a.72.72 0 00-.72.72l.001 2.881a.72.72 0 001.44 0v-2.88a.72.72 0 00-.72-.72zm-14.4 0a.72.72 0 00-.72.72l-.001 2.88a.72.72 0 001.44.001v-2.88a.72.72 0 00-.72-.72zm11.52 4.321a.72.72 0 00-.72.72v6.898a.72.72 0 101.44 0v-6.898a.72.72 0 00-.72-.72zm-4.073 4.074a.72.72 0 00-.72.72v6.898a.72.72 0 101.44 0v-6.898a.72.72 0 00-.72-.72zm-4.568-4.074a.72.72 0 00-.72.72v6.898a.72.72 0 001.44 0v-6.898a.72.72 0 00-.72-.72zM26.07 21.39a.72.72 0 00-.72.72v1.44a.72.72 0 001.44 0v-1.44a.72.72 0 00-.72-.72zm3.931-11.98l-8.293-.244 2.196-3.903 2.439-3.659 1.951 3.171 1.707 4.635zm-1.463 8.537l-2.44.975-.487-.244-1.951-.732-.488-1.463.976-2.44h3.414l1.22 1.952-.244 1.952zm-8.781 9.024l.976 1.708-.244.488-1.708.975-1.707 1.707v1.464l-.732-.488-1.951-4.146v-3.415l1.951-1.951 2.44-1.22.975 4.878zm14.147 3.903l-1.951-1.464v-1.22l.975-4.39.976-1.22 2.44 1.952.975 1.951v2.927l-.976 1.464-1.463 1.707-.976-1.707z"/></g><defs><clipPath id="eclip0"><path fill="#fff" transform="rotate(-45 32.592 13.5)" d="M0 0h36.868v36.868H0z"/></clipPath></defs></svg><svg fill="none" viewBox="0 0 36 36" id="tel" xmlns="http://www.w3.org/2000/svg"><path d="M30.795 15.107c.043-5.076-4.28-9.729-9.636-10.372-.107-.013-.223-.032-.346-.052a5.01 5.01 0 00-.816-.09c-1.098 0-1.391.772-1.468 1.232-.076.447-.004.823.212 1.117.364.494 1.003.582 1.517.652.15.02.293.04.412.067 4.813 1.075 6.433 2.766 7.225 7.538.02.117.028.26.038.413.034.57.106 1.757 1.382 1.757.106 0 .22-.01.34-.027 1.188-.181 1.15-1.266 1.132-1.787-.005-.147-.01-.286.003-.378a.515.515 0 00.005-.07z" fill="#0749AA"/><path d="M19.686 2.872c.142.01.277.02.39.037 7.903 1.216 11.537 4.96 12.544 12.925.018.136.02.3.023.476.01.622.03 1.916 1.42 1.943h.044c.436 0 .783-.13 1.031-.39.433-.453.403-1.126.378-1.666a7.066 7.066 0 01-.01-.367c.1-8.146-6.95-15.533-15.09-15.808a.564.564 0 00-.098.006.68.68 0 01-.096.005c-.082 0-.181-.007-.287-.014a5.977 5.977 0 00-.42-.019c-1.297 0-1.543.921-1.575 1.47-.072 1.27 1.155 1.359 1.746 1.402zm12.553 23.256a24.63 24.63 0 01-.504-.392c-.863-.695-1.781-1.335-2.67-1.954l-.551-.385c-1.137-.799-2.16-1.187-3.126-1.187-1.3 0-2.435.719-3.371 2.136-.415.629-.918.934-1.539.934-.366 0-.783-.104-1.238-.31-3.67-1.665-6.292-4.218-7.79-7.587-.725-1.628-.49-2.692.785-3.558.724-.492 2.072-1.407 1.976-3.16-.108-1.989-4.498-7.976-6.348-8.656-.783-.288-1.606-.29-2.45-.006-2.126.715-3.652 1.97-4.413 3.63-.736 1.604-.702 3.487.096 5.447 2.307 5.664 5.551 10.603 9.642 14.678 4.004 3.99 8.926 7.258 14.628 9.713.514.221 1.053.342 1.447.43.134.03.25.056.334.079a.53.53 0 00.142.02h.045c2.683 0 5.903-2.45 6.892-5.245.866-2.446-.716-3.655-1.987-4.627zM20.872 9.343c-.46.011-1.415.035-1.75 1.008-.157.455-.138.85.056 1.174.284.475.83.621 1.326.701 1.799.289 2.723 1.283 2.907 3.13.086.862.666 1.463 1.41 1.463h.001c.055 0 .111-.003.167-.01.896-.107 1.33-.765 1.29-1.955.015-1.243-.636-2.654-1.742-3.778-1.11-1.128-2.448-1.763-3.665-1.733z" fill="#0749AA"/></svg><svg id="insta" viewBox="0 0 41 41"><g clip-path="url(#clip0)" fill="#0749AA"><path d="M40.96 12.054c-.096-2.178-.449-3.676-.953-4.974a10.006 10.006 0 00-2.371-3.636 10.09 10.09 0 00-3.628-2.363C32.702.577 31.212.224 29.034.128 26.839.024 26.142 0 20.576 0c-5.567 0-6.263.024-8.45.12-2.178.096-3.676.449-4.974.953a10.004 10.004 0 00-3.636 2.371 10.094 10.094 0 00-2.363 3.628C.65 8.378.296 9.867.2 12.046c-.104 2.195-.128 2.892-.128 8.458 0 5.566.024 6.263.12 8.45.096 2.178.449 3.676.953 4.974a10.11 10.11 0 002.371 3.636 10.09 10.09 0 003.628 2.363c1.306.504 2.796.857 4.974.953 2.187.096 2.884.12 8.45.12 5.567 0 6.263-.024 8.45-.12 2.179-.096 3.676-.449 4.974-.953a10.487 10.487 0 005.999-6c.504-1.305.857-2.795.953-4.973.096-2.187.12-2.884.12-8.45 0-5.567-.008-6.263-.104-8.45zm-3.692 16.74c-.089 2.002-.425 3.083-.705 3.804a6.801 6.801 0 01-3.893 3.893c-.72.28-1.81.617-3.804.704-2.163.097-2.811.12-8.282.12-5.47 0-6.127-.023-8.282-.12-2.002-.087-3.083-.424-3.804-.704a6.309 6.309 0 01-2.355-1.53 6.374 6.374 0 01-1.53-2.355c-.28-.72-.616-1.81-.704-3.804-.097-2.163-.12-2.812-.12-8.282 0-5.47.023-6.127.12-8.282.088-2.002.424-3.083.704-3.804.329-.89.85-1.698 1.538-2.355a6.364 6.364 0 012.355-1.53c.72-.28 1.81-.616 3.804-.705 2.163-.096 2.812-.12 8.282-.12 5.479 0 6.127.024 8.282.12 2.002.089 3.084.425 3.804.705a6.305 6.305 0 012.355 1.53 6.373 6.373 0 011.53 2.355c.28.72.616 1.81.705 3.804.096 2.163.12 2.812.12 8.282 0 5.47-.024 6.111-.12 8.274z"/><path d="M20.576 9.972c-5.815 0-10.532 4.717-10.532 10.532s4.717 10.532 10.532 10.532 10.532-4.717 10.532-10.532S26.391 9.972 20.576 9.972zm0 17.364a6.833 6.833 0 010-13.664 6.833 6.833 0 010 13.664zm13.408-17.78a2.459 2.459 0 11-4.918 0 2.459 2.459 0 014.918 0z"/></g><defs><clipPath id="clip0"><path fill="#fff" d="M0 0h41v41H0z"/></clipPath></defs></svg><svg id="vk" viewBox="0 0 48 28"><path d="M39.831 16.056c-.776-.98-.554-1.416 0-2.292.01-.01 6.417-8.862 7.077-11.864l.004-.002C47.24.804 46.912 0 45.326 0h-5.249c-1.336 0-1.952.69-2.282 1.462 0 0-2.672 6.396-6.452 10.542-1.22 1.198-1.784 1.582-2.45 1.582-.328 0-.838-.384-.838-1.478V1.898C28.055.586 27.681 0 26.575 0h-8.252c-.838 0-1.336.612-1.336 1.182 0 1.244 1.89 1.53 2.086 5.03v7.594c0 1.664-.302 1.97-.972 1.97-1.784 0-6.115-6.422-8.68-13.772C8.901.578 8.395.002 7.05.002H1.8C.301.002 0 .692 0 1.464 0 2.828 1.784 9.61 8.296 18.57 12.636 24.686 18.75 28 24.31 28c3.342 0 3.75-.736 3.75-2.002 0-5.844-.302-6.396 1.372-6.396.776 0 2.112.384 5.232 3.334C38.23 26.434 38.815 28 40.811 28h5.249c1.496 0 2.254-.736 1.818-2.188-.998-3.054-7.743-9.336-8.047-9.756z" fill="#0749AA"/></svg><svg viewBox="0 0 53 31" id="myTarget"><path d="M52.873 5.42l-2.63 2.65c-.49.51-1.148.765-1.839.748h-1.872L42.3 13.05a3.453 3.453 0 01-.05 1.852 3.353 3.353 0 01-4.2 2.227c-1.77-.544-2.731-2.465-2.175-4.232.557-1.768 2.428-2.77 4.2-2.226l4.165-4.147v-1.87a2.535 2.535 0 01.742-1.852L47.645.117s.793-.459.793.442v3.195c0 .56.135.833.776.867h3.254c.877 0 .405.815.405.798zm-3.204 6.508a10.967 10.967 0 01-5.531 11.642c-5.296 2.838-11.839.832-14.672-4.487l-.152-.306c-.253-.442-.573-.578-1.029-.476-.185.068-.573.221-.674.272a8.822 8.822 0 00-2.108 1.326l-.017.238c-.523 4.588-.826 9.636-2.766 10.605-.32.153-.64.238-.978.255-.54.034-1.08-.187-1.619-.51-2.293-1.36-3.39-3.4-3.238-5.473.169-2.294 1.923-4.52 5.312-6.73.034-.51.085-1.002.102-1.461-.22.527-.557.985-.979 1.393-1.13 1.054-2.58 1.003-3.575-.238-.286-.373-.843-1.036-1.062-1.801-.691 1.139-1.265 1.7-1.754 1.904a2.34 2.34 0 01-1.214.51c-1.467.101-2.226-.783-2.378-1.598-.185-.918-.101-2.957-.101-3.161 0-.29-.338-.34-.472-.323-.439.068-.658.544-.776.833-.523 1.155-.692 2.107-1.282 3.229-.388.764-1.298 1.07-2.074.764a1.367 1.367 0 01-.826-.764c-.135-.357-.27-1.122-.169-2.227.05-.577.084-1.087.101-1.648a.311.311 0 00-.32-.323.623.623 0 00-.54.323c-.287.527-.54 1.24-.826 1.852-.236.527-.658 1.632-.877 2.108a1.663 1.663 0 01-1.063.985c-.978.323-1.838-.272-1.939-1.36-.084-.968-.084-1.512-.101-2.498-.05-1.274-.084-2.175-.068-3.432.034-1.173.32-3.57 2.496-3.349.894.102.81 1.19.81 1.632 0 .102.017.952.033 1.326v.05c.017.12.135.204.27.188.186-.034.354-.238.506-.442.152-.272.236-.408.506-.918.354-.697.54-1.02.961-1.683.236-.424.658-.73 1.13-.815.76-.12 1.636.323 1.737 1.19.034.305.068.713.068.9.017.782-.017.646 0 1.428 0 .153.017.407.185.476.169.068.337-.153.439-.272.59-.697 1.197-1.632 1.973-2.465.438-.493.894-.985 1.686-.985 1.231 0 1.788.764 1.687 1.716-.152 1.598-.338 3.807-.32 4.997 0 .152-.051.492.1.577.27.187 1.4-.866 1.957-1.852.033-.068.05-.102.084-.153 0-.697-.017-1.495.034-2.192.05-.884.185-1.785.59-2.567.405-.781 1.045-1.121 1.838-1.036 1.164.102 1.821.883 1.67 2.192-.118 1.054-.59 1.139-.692 1.802-.118.934-.202 2.005.068 2.923.219.764.826.917 1.366.56.54-.356.96-1.24 1.18-1.954.27-.9.506-2.345.725-3.28.118-.578.27-1.173.641-1.631.405-.544 1.113-.748 1.72-.493.05.034.101.05.152.085h.017c.101.05.185.102.287.17.27.136.472.357.607.628.118.272.185.561.202.867.067.731-.371 1.666-.725 3.314l-.05.425c-.102 1.139-.102 1.649-.152 2.804v.17a11.998 11.998 0 013.507-1.155c.32-.052.641-.069.978-.034a1.643 1.643 0 011.4 1.24 7.762 7.762 0 002.648 4.215 7.37 7.37 0 004.755 1.682c.472 0 .961-.05 1.417-.136 4.132-.798 6.83-4.826 6.037-8.973a1.624 1.624 0 011.282-1.903c.877-.17 1.703.408 1.855 1.308zM21.928 22.16c-1.366 1.258-1.586 2.108-1.62 2.465-.067.611.203 1.206.709 1.597.202.153.405.102.472-.102.253-.918.405-3.06.439-3.96zm8.212-11.165c.776.425 1.771.119 2.193-.663 1.619-2.991 4.991-4.572 8.297-3.841.877.17 1.737-.39 1.905-1.275.17-.866-.37-1.716-1.214-1.903-4.705-1.02-9.528 1.207-11.821 5.49-.439.781-.135 1.767.64 2.192z" fill="#0749AA"/></svg></svg>