<svg width="33" height="33" viewBox="0 0 33 33" fill="none" xmlns="http://www.w3.org/2000/svg">
<g clip-path="url(#clip0)">
<path d="M32.903 9.54476C32.8244 7.81601 32.5514 6.63543 32.1522 5.60255C31.7469 4.51887 31.1112 3.53728 30.2897 2.72594C29.4832 1.89973 28.507 1.26013 27.4295 0.852228C26.4023 0.451019 25.2287 0.17669 23.5098 0.0981339C21.7878 0.0188338 21.2376 0 16.8522 0C12.4668 0 11.9166 0.0188338 10.1946 0.0976382C8.4757 0.17669 7.30211 0.451267 6.27488 0.852724C5.19739 1.26038 4.22141 1.89973 3.41471 2.72594C2.59322 3.53703 1.95727 4.51862 1.5517 5.6023C1.15279 6.63543 0.880027 7.81601 0.801919 9.54451C0.723072 11.2767 0.704346 11.8298 0.704346 16.2404C0.704346 20.6512 0.723072 21.2046 0.801919 22.9366C0.880273 24.6651 1.15328 25.8456 1.55244 26.8788C1.95777 27.9622 2.59347 28.944 3.41496 29.7551C4.22141 30.5813 5.19764 31.2207 6.27513 31.6283C7.30211 32.03 8.47595 32.3044 10.1948 32.3834C11.9171 32.4625 12.4671 32.4811 16.8524 32.4811C21.2378 32.4811 21.788 32.4625 23.5101 32.3834C25.229 32.3044 26.4025 32.03 27.4298 31.6283C29.5988 30.7848 31.3135 29.0603 32.1522 26.8788C32.5516 25.8456 32.8244 24.6651 32.903 22.9366C32.9813 21.2043 33.0001 20.6512 33.0001 16.2407C33.0001 11.8298 32.9813 11.2767 32.903 9.54476ZM29.9962 22.8035C29.9245 24.387 29.6614 25.2469 29.4404 25.8191C28.8971 27.2356 27.7841 28.355 26.3757 28.9014C25.8068 29.1237 24.9518 29.3884 23.3773 29.4605C21.6749 29.5388 21.1641 29.5551 16.8522 29.5551C12.54 29.5551 12.0295 29.5388 10.3269 29.4605C8.75265 29.3884 7.89765 29.1237 7.32848 28.9014C6.62723 28.641 5.99276 28.2259 5.47188 27.6864C4.93547 27.1625 4.52276 26.5246 4.26379 25.8191C4.04278 25.2469 3.77962 24.387 3.70792 22.8035C3.63031 21.0911 3.6138 20.5774 3.6138 16.2409C3.6138 11.9042 3.63031 11.3907 3.70792 9.67808C3.77987 8.09456 4.04278 7.23465 4.26379 6.66245C4.52276 5.95692 4.93572 5.31881 5.47188 4.79493C5.99276 4.25544 6.62723 3.84035 7.32872 3.58015C7.89765 3.35762 8.75265 3.0932 10.3271 3.02084C12.0297 2.94278 12.5405 2.92617 16.8522 2.92617H16.852C21.1637 2.92617 21.6744 2.94278 23.3773 3.02109C24.9518 3.0932 25.8065 3.35786 26.3757 3.58015C27.0769 3.8406 27.7114 4.25569 28.2323 4.79493C28.7687 5.31881 29.1814 5.95692 29.4401 6.66245C29.6614 7.23465 29.9245 8.09456 29.9962 9.67808C30.0739 11.3905 30.0904 11.9042 30.0904 16.2407C30.0904 20.5774 30.0741 21.0908 29.9962 22.8035Z" fill="url(#paint0_linear)"/>
<path d="M16.852 7.90076C12.2725 7.90076 8.56 11.6348 8.56 16.2406C8.56 20.8465 12.2725 24.5803 16.852 24.5803C21.4318 24.5803 25.1442 20.8465 25.1442 16.2406C25.1442 11.6348 21.4318 7.90076 16.852 7.90076ZM16.852 21.6541C13.8795 21.6539 11.4695 19.2303 11.4697 16.2404C11.4697 13.2508 13.8795 10.8269 16.8522 10.8269C19.825 10.8272 22.2348 13.2508 22.2348 16.2404C22.2348 19.2303 19.8248 21.6541 16.852 21.6541Z" fill="url(#paint1_linear)"/>
<path d="M27.4096 7.57142C27.4096 8.64767 26.542 9.52022 25.4719 9.52022C24.4016 9.52022 23.534 8.64767 23.534 7.57142C23.534 6.49492 24.4016 5.62238 25.4719 5.62238C26.542 5.62238 27.4096 6.49492 27.4096 7.57142Z" fill="url(#paint2_linear)"/>
</g>
<defs>
<linearGradient id="paint0_linear" x1="3.41455" y1="29.7553" x2="30.4439" y2="2.8804" gradientUnits="userSpaceOnUse">
<stop stop-color="#FFD600"/>
<stop offset="0.5" stop-color="#FF0100"/>
<stop offset="1" stop-color="#D800B9"/>
</linearGradient>
<linearGradient id="paint1_linear" x1="10.9887" y1="22.1376" x2="22.7827" y2="10.411" gradientUnits="userSpaceOnUse">
<stop stop-color="#FF6400"/>
<stop offset="0.5" stop-color="#FF0100"/>
<stop offset="1" stop-color="#FD0056"/>
</linearGradient>
<linearGradient id="paint2_linear" x1="24.1017" y1="8.94934" x2="26.8577" y2="6.20907" gradientUnits="userSpaceOnUse">
<stop stop-color="#F30072"/>
<stop offset="1" stop-color="#E50097"/>
</linearGradient>
<clipPath id="clip0">
<rect width="32.2957" height="32.4813" fill="white" transform="translate(0.704346)"/>
</clipPath>
</defs>
</svg>
