<?xml version="1.0" encoding="utf-8"?><svg viewBox="0 0 33 33" xmlns="http://www.w3.org/2000/svg" xmlns:xlink="http://www.w3.org/1999/xlink"><style>:root>svg{display:none}:root>svg:target{display:block}</style><svg fill="none" viewBox="0 0 16 16" id="clock-ic" xmlns="http://www.w3.org/2000/svg"><path d="M10.85 9.413L8.62 7.74V4.332a.62.62 0 10-1.24 0V8.05c0 .195.092.379.248.495l2.479 1.86a.616.616 0 00.867-.125.618.618 0 00-.123-.867z" fill="#696969"/><path d="M8 0C3.589 0 0 3.589 0 8c0 4.412 3.589 8 8 8 4.412 0 8-3.588 8-8 0-4.411-3.588-8-8-8zm0 14.76A6.769 6.769 0 011.24 8 6.769 6.769 0 018 1.24 6.769 6.769 0 0114.76 8 6.77 6.77 0 018 14.76z" fill="#696969"/></svg><svg fill="none" viewBox="0 0 33 33" id="insta-ic" xmlns="http://www.w3.org/2000/svg"><g clip-path="url(#bclip0)"><path d="M32.903 9.545c-.079-1.729-.352-2.91-.75-3.942a7.964 7.964 0 00-1.863-2.877A7.913 7.913 0 0027.43.852C26.402.451 25.229.177 23.51.098 21.788.018 21.238 0 16.852 0c-4.385 0-4.935.019-6.657.098-1.72.079-2.893.353-3.92.755a7.91 7.91 0 00-2.86 1.873 7.966 7.966 0 00-1.863 2.876c-.4 1.033-.672 2.214-.75 3.943C.723 11.277.704 11.83.704 16.24c0 4.411.02 4.965.098 6.697.078 1.728.351 2.909.75 3.942a7.963 7.963 0 001.863 2.876 7.907 7.907 0 002.86 1.873c1.027.402 2.2.676 3.92.755 1.722.08 2.272.098 6.657.098 4.386 0 4.936-.019 6.658-.098 1.719-.079 2.892-.353 3.92-.755a8.279 8.279 0 004.722-4.75c.4-1.032.672-2.213.751-3.941.078-1.733.097-2.286.097-6.696 0-4.411-.019-4.964-.097-6.696zm-2.907 13.258c-.072 1.584-.335 2.444-.556 3.016a5.363 5.363 0 01-3.064 3.082c-.57.223-1.424.487-2.999.56-1.702.078-2.213.094-6.525.094s-4.822-.016-6.525-.095c-1.574-.072-2.43-.336-2.999-.559a5 5 0 01-1.856-1.215 5.035 5.035 0 01-1.208-1.867c-.221-.572-.484-1.432-.556-3.015-.078-1.713-.094-2.227-.094-6.563 0-4.337.016-4.85.094-6.563.072-1.583.335-2.443.556-3.016a5.038 5.038 0 011.208-1.867A4.997 4.997 0 017.329 3.58c.569-.222 1.424-.487 2.998-.56 1.703-.077 2.213-.094 6.525-.094s4.822.017 6.525.095c1.575.072 2.43.337 2.999.56.7.26 1.335.675 1.856 1.214.537.524.95 1.162 1.208 1.867.221.573.484 1.433.556 3.016.078 1.712.094 2.226.094 6.563 0 4.336-.016 4.85-.094 6.563z" fill="url(#bpaint0_linear)"/><path d="M16.852 7.9c-4.58 0-8.292 3.735-8.292 8.34 0 4.607 3.713 8.34 8.292 8.34 4.58 0 8.292-3.733 8.292-8.34 0-4.605-3.712-8.34-8.292-8.34zm0 13.754c-2.973 0-5.383-2.424-5.382-5.414 0-2.99 2.41-5.413 5.382-5.413 2.973 0 5.383 2.424 5.383 5.413 0 2.99-2.41 5.414-5.383 5.414z" fill="url(#bpaint1_linear)"/><path d="M27.41 7.571a1.943 1.943 0 01-1.938 1.95 1.943 1.943 0 01-1.938-1.95c0-1.076.868-1.949 1.938-1.949 1.07 0 1.938.873 1.938 1.95z" fill="url(#bpaint2_linear)"/></g><defs><linearGradient id="bpaint0_linear" x1="3.415" y1="29.755" x2="30.444" y2="2.88" gradientUnits="userSpaceOnUse"><stop stop-color="#FFD600"/><stop offset=".5" stop-color="#FF0100"/><stop offset="1" stop-color="#D800B9"/></linearGradient><linearGradient id="bpaint1_linear" x1="10.989" y1="22.138" x2="22.783" y2="10.411" gradientUnits="userSpaceOnUse"><stop stop-color="#FF6400"/><stop offset=".5" stop-color="#FF0100"/><stop offset="1" stop-color="#FD0056"/></linearGradient><linearGradient id="bpaint2_linear" x1="24.102" y1="8.949" x2="26.858" y2="6.209" gradientUnits="userSpaceOnUse"><stop stop-color="#F30072"/><stop offset="1" stop-color="#E50097"/></linearGradient><clipPath id="bclip0"><path fill="#fff" transform="translate(.704)" d="M0 0h32.296v32.481H0z"/></clipPath></defs></svg><svg fill="none" viewBox="0 0 12 16" id="loc-ic" xmlns="http://www.w3.org/2000/svg"><path d="M6 0A5.801 5.801 0 00.205 5.795c0 3.965 5.186 9.786 5.407 10.032.207.23.57.23.776 0 .221-.246 5.407-6.067 5.407-10.032C11.795 2.599 9.195 0 6 0zm0 14.679c-1.745-2.073-4.751-6.163-4.751-8.884A4.756 4.756 0 016 1.043a4.756 4.756 0 014.751 4.752c0 2.721-3.005 6.81-4.751 8.884z" fill="#696969"/><path d="M6 2.88a2.919 2.919 0 00-2.915 2.915A2.919 2.919 0 006 8.71a2.919 2.919 0 002.915-2.915A2.919 2.919 0 006 2.879zm0 4.786a1.874 1.874 0 01-1.872-1.871c0-1.033.84-1.872 1.872-1.872s1.872.84 1.872 1.872S7.032 7.666 6 7.666z" fill="#696969"/></svg><svg fill="none" viewBox="0 0 16 12" id="mail-ic" xmlns="http://www.w3.org/2000/svg"><path d="M14.594.375H1.406C.63.375 0 1.008 0 1.781v8.438c0 .777.634 1.406 1.406 1.406h13.188c.77 0 1.406-.626 1.406-1.406V1.78c0-.771-.627-1.406-1.406-1.406zm-.197.938L8.994 6.686A1.397 1.397 0 018 7.098c-.376 0-.729-.146-.995-.412L1.603 1.313h12.794zM.937 10.027V1.973l4.052 4.03-4.051 4.025zm.667.66l4.05-4.024.689.685A2.328 2.328 0 008 8.036c.626 0 1.215-.244 1.656-.686l.69-.686 4.05 4.024H1.604zm13.458-.66l-4.05-4.026 4.05-4.03v8.056z" fill="#696969"/></svg><svg viewBox="0 0 18 18" id="menu-drop-arr"><path d="M9 0C4.037 0 0 4.037 0 9s4.037 9 9 9 9-4.037 9-9-4.037-9-9-9zm2.78 9.53l-3.75 3.75a.748.748 0 01-1.06 0 .75.75 0 010-1.06L10.19 9 6.97 5.78a.75.75 0 111.06-1.06l3.75 3.75a.75.75 0 010 1.06z" fill="inherit"/></svg><svg viewBox="0 0 31 31" fill="none" id="viber-ic" xmlns="http://www.w3.org/2000/svg"><g clip-path="url(#clip0)"><path d="M18.6 0h-6.2C6.416 0 1.548 4.868 1.548 10.851v4.651c0 4.2 2.423 8.013 6.201 9.806v5.18c0 .449.563.684.882.365l4.5-4.5h5.47c5.983 0 10.85-4.868 10.85-10.851v-4.65C29.452 4.867 24.585 0 18.602 0z" fill="#665CAC"/><path d="M9.3 25.308a10.856 10.856 0 01-6.202-9.806v-4.65C3.098 4.867 7.966 0 13.95 0H12.4C6.416 0 1.548 4.868 1.548 10.851v4.651c0 4.2 2.423 8.013 6.201 9.806v5.18c0 .449.563.684.882.365l.668-.668v-4.877z" fill="#523494"/><path d="M23.302 19.26l-.465-2.517a.517.517 0 00-.407-.413l-3.654-.73a.517.517 0 00-.467.141l-1.484 1.485c-2.501-1.121-3.89-2.512-5.11-5.12l1.48-1.48a.517.517 0 00.14-.467l-.73-3.654a.517.517 0 00-.413-.407l-2.517-.464a.518.518 0 00-.208.004 3.606 3.606 0 00-1.754.968c-.835.836-1.155 2.055-.923 3.527.389 2.47 1.599 5.909 3.832 8.151l.03.03c2.241 2.232 5.68 3.443 8.15 3.831.312.05.611.074.899.074 1.071 0 1.969-.338 2.628-.997a3.607 3.607 0 00.968-1.754.522.522 0 00.005-.208z" fill="#fff"/><path d="M12.689 11.13l.505-.504-.505.505zM18.31 15.74l-.51.51.51-.51z" fill="#E5E5E5"/><path d="M20.675 21.244a5.77 5.77 0 01-.898-.073c-2.471-.389-5.91-1.6-8.15-3.831l-.03-.03c-2.234-2.243-3.444-5.681-3.833-8.152-.187-1.188-.014-2.213.5-3.003a3.618 3.618 0 00-.55.451c-.837.836-1.156 2.055-.924 3.527.388 2.47 1.599 5.909 3.832 8.151l.03.03c2.241 2.232 5.68 3.442 8.15 3.831.311.05.611.074.899.074 1.071 0 1.969-.338 2.628-.997.169-.17.32-.354.45-.551-.583.38-1.294.573-2.104.573z" fill="#E5E5E5"/><path d="M16.533 8.784a.517.517 0 000 1.034 2.07 2.07 0 012.067 2.067c0 .281.235.517.517.517a.522.522 0 00.517-.517c0-1.71-1.391-3.1-3.1-3.1z" fill="#fff"/><path d="M16.533 6.717c-.19 0-.384.011-.573.032a.517.517 0 10.113 1.027 4.139 4.139 0 014.569 4.569c-.03.28.177.54.457.57.28.031.54-.177.57-.457a5.173 5.173 0 00-5.136-5.74z" fill="#fff"/><path d="M16.534 4.65c-.185 0-.372.008-.556.022a.517.517 0 00.078 1.03 6.208 6.208 0 016.513 7.614.522.522 0 00.366.617.522.522 0 00.64-.38 7.266 7.266 0 00.193-1.668c0-3.99-3.245-7.234-7.234-7.234z" fill="#fff"/></g></svg><svg viewBox="0 0 31 31" fill="none" id="wp-ic" xmlns="http://www.w3.org/2000/svg"><path d="M15.504 0h-.008C6.95 0 0 6.952 0 15.5c0 3.39 1.093 6.533 2.95 9.085l-1.93 5.758 5.957-1.904A15.365 15.365 0 0015.504 31C24.05 31 31 24.046 31 15.5S24.05 0 15.504 0z" fill="#4CAF50"/><path d="M24.523 21.888c-.374 1.056-1.858 1.932-3.042 2.187-.81.173-1.868.31-5.429-1.166-4.555-1.887-7.488-6.516-7.717-6.816-.219-.3-1.84-2.451-1.84-4.675 0-2.225 1.129-3.308 1.584-3.773.374-.381.992-.556 1.585-.556.192 0 .364.01.52.018.455.02.683.046.984.765.374.901 1.284 3.125 1.393 3.354.11.228.22.538.066.839-.146.31-.274.447-.502.71-.229.264-.446.466-.675.749-.209.246-.445.51-.182.965.264.445 1.175 1.931 2.515 3.125 1.73 1.54 3.133 2.032 3.635 2.241.374.155.82.119 1.093-.172.347-.374.775-.994 1.21-1.604.31-.438.702-.492 1.113-.337.418.145 2.633 1.24 3.088 1.466.456.229.756.338.866.53.109.191.109 1.092-.265 2.15z" fill="#FAFAFA"/></svg></svg>