<svg width="33" height="33" fill="none" xmlns="http://www.w3.org/2000/svg"><g clip-path="url(#clip0)"><path d="M32.903 9.545c-.079-1.729-.352-2.91-.75-3.942a7.964 7.964 0 00-1.863-2.877A7.913 7.913 0 0027.43.852C26.402.451 25.229.177 23.51.098 21.788.018 21.238 0 16.852 0c-4.385 0-4.935.019-6.657.098-1.72.079-2.893.353-3.92.755a7.91 7.91 0 00-2.86 1.873 7.966 7.966 0 00-1.863 2.876c-.4 1.033-.672 2.214-.75 3.943C.723 11.277.704 11.83.704 16.24c0 4.411.02 4.965.098 6.697.078 1.728.351 2.909.75 3.942a7.963 7.963 0 001.863 2.876 7.907 7.907 0 002.86 1.873c1.027.402 2.2.676 3.92.755 1.722.08 2.272.098 6.657.098 4.386 0 4.936-.019 6.658-.098 1.719-.079 2.892-.353 3.92-.755a8.279 8.279 0 004.722-4.75c.4-1.032.672-2.213.751-3.941.078-1.733.097-2.286.097-6.696 0-4.411-.019-4.964-.097-6.696zm-2.907 13.258c-.072 1.584-.335 2.444-.556 3.016a5.363 5.363 0 01-3.064 3.082c-.57.223-1.424.487-2.999.56-1.702.078-2.213.094-6.525.094s-4.822-.016-6.525-.095c-1.574-.072-2.43-.336-2.999-.559a5 5 0 01-1.856-1.215 5.035 5.035 0 01-1.208-1.867c-.221-.572-.484-1.432-.556-3.015-.078-1.713-.094-2.227-.094-6.563 0-4.337.016-4.85.094-6.563.072-1.583.335-2.443.556-3.016a5.038 5.038 0 011.208-1.867A4.997 4.997 0 017.329 3.58c.569-.222 1.424-.487 2.998-.56 1.703-.077 2.213-.094 6.525-.094s4.822.017 6.525.095c1.575.072 2.43.337 2.999.56.7.26 1.335.675 1.856 1.214.537.524.95 1.162 1.208 1.867.221.573.484 1.433.556 3.016.078 1.712.094 2.226.094 6.563 0 4.336-.016 4.85-.094 6.563z" fill="url(#paint0_linear)"/><path d="M16.852 7.9c-4.58 0-8.292 3.735-8.292 8.34 0 4.607 3.713 8.34 8.292 8.34 4.58 0 8.292-3.733 8.292-8.34 0-4.605-3.712-8.34-8.292-8.34zm0 13.754c-2.973 0-5.383-2.424-5.382-5.414 0-2.99 2.41-5.413 5.382-5.413 2.973 0 5.383 2.424 5.383 5.413 0 2.99-2.41 5.414-5.383 5.414z" fill="url(#paint1_linear)"/><path d="M27.41 7.571a1.943 1.943 0 01-1.938 1.95 1.943 1.943 0 01-1.938-1.95c0-1.076.868-1.949 1.938-1.949 1.07 0 1.938.873 1.938 1.95z" fill="url(#paint2_linear)"/></g><defs><linearGradient id="paint0_linear" x1="3.415" y1="29.755" x2="30.444" y2="2.88" gradientUnits="userSpaceOnUse"><stop stop-color="#FFD600"/><stop offset=".5" stop-color="#FF0100"/><stop offset="1" stop-color="#D800B9"/></linearGradient><linearGradient id="paint1_linear" x1="10.989" y1="22.138" x2="22.783" y2="10.411" gradientUnits="userSpaceOnUse"><stop stop-color="#FF6400"/><stop offset=".5" stop-color="#FF0100"/><stop offset="1" stop-color="#FD0056"/></linearGradient><linearGradient id="paint2_linear" x1="24.102" y1="8.949" x2="26.858" y2="6.209" gradientUnits="userSpaceOnUse"><stop stop-color="#F30072"/><stop offset="1" stop-color="#E50097"/></linearGradient><clipPath id="clip0"><path fill="#fff" transform="translate(.704)" d="M0 0h32.296v32.481H0z"/></clipPath></defs></svg>