<svg width="12" height="16"><path d="M6 0A5.801 5.801 0 00.205 5.795c0 3.965 5.186 9.786 5.407 10.032.207.23.57.23.776 0 .221-.246 5.407-6.067 5.407-10.032C11.795 2.599 9.195 0 6 0zm0 14.679c-1.745-2.073-4.751-6.163-4.751-8.884A4.756 4.756 0 016 1.043a4.756 4.756 0 014.751 4.752c0 2.721-3.005 6.81-4.751 8.884z" fill="#696969"/><path d="M6 2.88a2.919 2.919 0 00-2.915 2.915A2.919 2.919 0 006 8.71a2.919 2.919 0 002.915-2.915A2.919 2.919 0 006 2.879zm0 4.786a1.874 1.874 0 01-1.872-1.871c0-1.033.84-1.872 1.872-1.872s1.872.84 1.872 1.872S7.032 7.666 6 7.666z" fill="inherit"/></svg>