<svg width="96" height="68" fill="none" xmlns="http://www.w3.org/2000/svg"><path d="M15.844 60.031L6.656 14.094l26.032 16.843L48 4.907l15.313 27.562 26.03-16.844-9.187 44.406H15.844zm67.375 6.125H12.78l1.531-6.125h67.376l1.53 6.125z" fill="#fff"/><path d="M6.656 20.219a4.594 4.594 0 100-9.188 4.594 4.594 0 000 9.188zM48 11.031a4.594 4.594 0 100-9.187 4.594 4.594 0 000 9.187zm41.344 9.188a4.594 4.594 0 100-9.188 4.594 4.594 0 000 9.188z" fill="#fff"/><path d="M89.344 9.5a6.13 6.13 0 00-6.125 6.125 6.028 6.028 0 00.258 1.755L63.228 29.615l-10.841-18.91a6.125 6.125 0 10-8.774 0l-10.841 18.91-20.25-12.235a6.03 6.03 0 00.26-1.755 6.125 6.125 0 10-6.424 6.117l7.614 36.798a1.53 1.53 0 00-1.145 1.12l-1.531 6.125a1.532 1.532 0 001.485 1.902H83.22a1.531 1.531 0 001.485-1.902l-1.531-6.125a1.529 1.529 0 00-1.145-1.12l7.614-36.798A6.125 6.125 0 0089.344 9.5zM48 3.375A3.062 3.062 0 1148 9.5a3.062 3.062 0 010-6.125zM7.282 18.622H7.28l-.003.002a3.23 3.23 0 11.006-.002zm7.461 46.003l.766-3.063H80.49l.766 3.063H14.743zM78.91 58.5H17.09L9.357 21.12a6.14 6.14 0 001.58-1.12l21.592 13.047a1.532 1.532 0 002.12-.55L46.23 12.3c1.155.35 2.387.35 3.541 0l11.58 20.197a1.521 1.521 0 001.329.77c.28 0 .553-.076.792-.22L85.064 20c.464.454.997.832 1.579 1.12L78.91 58.5zm10.434-39.813a3.053 3.053 0 01-.623-.064h-.003a3.06 3.06 0 11.626.064z" fill="#fff"/></svg>