<svg width="52" height="52" fill="none" xmlns="http://www.w3.org/2000/svg"><g clip-path="url(#clip0)" fill="#fff"><path d="M5.417 22.75A5.424 5.424 0 000 28.167V45.5a5.424 5.424 0 005.417 5.417h6.5c1.22 0 2.342-.412 3.25-1.097V22.75h-9.75zM52 30.875a4.805 4.805 0 00-1.41-3.41 5.379 5.379 0 001.386-4.137c-.253-2.753-2.734-4.911-5.65-4.911H32.941c.663-2.013 1.725-5.703 1.725-8.667 0-4.7-3.994-8.667-6.5-8.667-2.252 0-3.86 1.268-3.929 1.32a1.089 1.089 0 00-.405.847v7.347l-6.24 13.518-.26.132V47.47c1.764.832 3.996 1.281 5.417 1.281h19.888c2.36 0 4.424-1.59 4.91-3.785a4.874 4.874 0 00-.393-3.255 4.853 4.853 0 002.17-6.502A4.85 4.85 0 0052 30.875z"/></g><defs><clipPath id="clip0"><path fill="#fff" d="M0 0h52v52H0z"/></clipPath></defs></svg>