<?xml version="1.0" encoding="utf-8"?><svg viewBox="0 0 19 33" xmlns="http://www.w3.org/2000/svg" xmlns:xlink="http://www.w3.org/1999/xlink"><style>:root>svg{display:none}:root>svg:target{display:block}</style><svg fill="none" viewBox="0 0 19 33" id="slider-arr_left" xmlns="http://www.w3.org/2000/svg"><path d="M17.385 32.992a.717.717 0 00.507-1.225L2.62 16.497 17.892 1.225A.718.718 0 0016.877.21L1.099 15.99a.717.717 0 000 1.014L16.877 32.78c.134.135.317.21.508.21z" fill="#0749AA"/></svg><svg fill="none" viewBox="0 0 19 33" id="slider-arr_right" xmlns="http://www.w3.org/2000/svg"><path d="M1.615 32.992a.717.717 0 01-.507-1.225l15.271-15.27L1.108 1.225A.718.718 0 112.123.21L17.901 15.99c.28.28.28.734 0 1.014L2.123 32.78a.717.717 0 01-.508.21z" fill="#0749AA"/></svg></svg>