<?xml version="1.0" encoding="utf-8"?><svg viewBox="0 0 53 54" xmlns="http://www.w3.org/2000/svg" xmlns:xlink="http://www.w3.org/1999/xlink"><style>:root>svg{display:none}:root>svg:target{display:block}</style><svg fill="none" viewBox="0 0 47 47" id="advertising" xmlns="http://www.w3.org/2000/svg"><g clip-path="url(#aclip0)"><path d="M17.177 33.61l2.301 2.322c.84.848.65 2.26-.383 2.857l-1.858 1.073-5.426-5.36 5.366-.893z" fill="#F9F9F9"/><path d="M15.972 45.383l-8.374-8.45 4.213-2.431 7.502 7.57a2.352 2.352 0 11-3.341 3.311zM18.629 11.063L6.67 25.598l5.14 8.903 18.568-3.088-11.75-20.35z" fill="#0749AA"/><path d="M33.204 31.901a2.203 2.203 0 01-3.01-.806L18.813 11.381a2.203 2.203 0 013.816-2.203L34.01 28.892a2.203 2.203 0 01-.806 3.01zM11.81 34.501l-3.179 1.836a5.14 5.14 0 01-5.14-8.903l3.18-1.836 5.14 8.903z" fill="#0749AA"/><path d="M31.05 21.928a.918.918 0 10-1.59.918l3.755 6.505c.172.297.218.643.129.975a1.277 1.277 0 01-.599.78 1.276 1.276 0 01-.975.129 1.276 1.276 0 01-.78-.599L19.607 10.921a1.276 1.276 0 01-.128-.975c.089-.331.301-.608.599-.78.297-.172.643-.217.975-.128.331.089.609.301.78.598l3.496 6.056a.918.918 0 001.59-.918l-3.496-6.055a3.125 3.125 0 00-4.263-1.143 3.1 3.1 0 00-1.454 1.895c-.12.446-.139.902-.062 1.343L6.067 24.886 3.032 26.64a6.018 6.018 0 00-2.823 3.678 6.019 6.019 0 00.605 4.598 6.018 6.018 0 003.679 2.822 5.98 5.98 0 002.709.1l8.118 8.192a3.269 3.269 0 003.958.53 3.248 3.248 0 001.606-2.398 3.248 3.248 0 00-.919-2.736l-1.31-1.322.899-.52a2.719 2.719 0 001.345-2.007 2.719 2.719 0 00-.769-2.29l-1.052-1.063L30.1 32.39a3.14 3.14 0 002.007.726c.54 0 1.074-.141 1.555-.419a3.1 3.1 0 001.454-1.895 3.1 3.1 0 00-.312-2.368l-3.755-6.505zM2.404 33.997a4.227 4.227 0 011.546-5.768l2.384-1.377 4.223 7.313-2.386 1.378a4.227 4.227 0 01-5.767-1.546zm16.66 9.92a1.435 1.435 0 01-2.44.82l-7.536-7.604 2.569-1.483 7.004 7.068c.316.318.463.755.403 1.2zm-.238-7.34c.198.201.29.476.253.756a.895.895 0 01-.443.66l-1.318.761-3.606-3.638 3.147-.524 1.967 1.986zm-6.538-3.085L7.783 25.69l10.713-13.022 10.425 18.057-16.633 2.767zM29.503 9.375a.917.917 0 001.268-.275l4.945-7.683a.918.918 0 10-1.544-.993l-4.944 7.683a.918.918 0 00.275 1.268zM46.081 21.864H35.892a.918.918 0 100 1.836h10.19a.918.918 0 100-1.836z" fill="#0749AA"/><path d="M26.283 21.025a.925.925 0 00.649-.269.925.925 0 00.269-.649.925.925 0 00-.27-.649.925.925 0 00-.648-.268.925.925 0 00-.65.268.925.925 0 00-.268.65c0 .24.098.478.269.648.17.171.407.27.649.27z" fill="#fff"/></g><defs><clipPath id="aclip0"><path fill="#fff" d="M0 0h47v47H0z"/></clipPath></defs></svg><svg fill="none" viewBox="0 0 38 44" id="bag" xmlns="http://www.w3.org/2000/svg"><path d="M21.993 29.228a2.09 2.09 0 00-.587-.427c-.468-.244-.98-.392-1.488-.525v3.936c.825-.093 1.771-.393 2.204-1.162.207-.368.248-.82.164-1.229a1.235 1.235 0 00-.293-.593zM22.118 31.056l.004-.006-.004.006zM16.051 22.936c-.141.207-.23.442-.255.692-.024.25-.01.529.084.765.091.224.28.39.477.524.22.15.461.266.707.365.207.083.44.163.69.24V21.96c-.633.135-1.324.423-1.703.976z" fill="#0749AA"/><path d="M22.138 31.02l-.016.028.016-.027zM22.16 30.984c0-.002 0-.002 0 0z" fill="#0749AA"/><path d="M21.305 9.574C24.652 6.762 26.889.427 25.512.15c-1.829-.368-5.8 1.247-7.72 1.531-2.722.33-5.687-2.952-7.352-1.123-1.353 1.487.97 6.894 4.606 9.25-10.846 5.33-26.09 32.09.504 34.031 36.798 2.687 18.372-29.071 5.755-34.265zm3.16 21.103a3.869 3.869 0 01-1.492 2.627c-.873.676-1.967.99-3.055 1.079v1.153c0 .308-.134.606-.365.81-.318.281-.784.35-1.17.173a1.092 1.092 0 01-.63-.983v-1.26a7.1 7.1 0 01-.554-.128c-1.016-.28-1.959-.823-2.647-1.629a4.772 4.772 0 01-.951-1.74c-.036-.12-.073-.241-.086-.366a1.084 1.084 0 011.173-1.187c.425.038.798.332.931.737.042.125.07.253.116.377.046.122.101.241.166.355.129.223.29.43.475.608.383.368.87.608 1.378.75v-4.282c-.993-.257-2.018-.59-2.838-1.227a3.302 3.302 0 01-.958-1.15c-.234-.482-.33-1.018-.335-1.55a3.692 3.692 0 01.325-1.569c.21-.461.515-.875.888-1.218.797-.734 1.856-1.143 2.918-1.294V18.567c0-.309.135-.607.365-.811.318-.28.784-.35 1.17-.173.38.175.63.565.63.984V19.757c.14.017.282.039.422.064 1.043.19 2.064.62 2.826 1.372a4.131 4.131 0 011.018 1.639c.041.126.083.255.102.386a1.084 1.084 0 01-1.118 1.24 1.092 1.092 0 01-.963-.693c-.045-.118-.068-.243-.114-.361a1.909 1.909 0 00-.177-.341 2.063 2.063 0 00-.511-.536c-.434-.32-.96-.488-1.486-.58v4.097c.625.15 1.25.313 1.849.55.905.356 1.762.903 2.256 1.766a5.514 5.514 0 01.003.004c.15.265.078.139.003.006.393.692.522 1.52.436 2.307zM22.105 31.078l-.015.027.015-.027z" fill="#0749AA"/></svg><svg fill="none" viewBox="0 0 43 36" id="crone" xmlns="http://www.w3.org/2000/svg"><path d="M34.79 33.85c0 .68-.55 1.233-1.231 1.233H9.24c-.68 0-1.232-.552-1.232-1.233v-2.629c0-.68.552-1.232 1.232-1.232H33.56c.68 0 1.232.552 1.232 1.232v2.63zM43 10.458a2.442 2.442 0 00-2.44-2.44 2.442 2.442 0 00-2.44 2.44c0 .439.118.85.322 1.205l-10.888 4.355-4.18-8.36a4.054 4.054 0 002.213-3.608A4.055 4.055 0 0021.537 0a4.055 4.055 0 00-4.05 4.05c0 1.572.9 2.937 2.212 3.608l-4.18 8.36-10.946-4.379c.195-.35.306-.752.306-1.18a2.442 2.442 0 00-2.44-2.44A2.442 2.442 0 000 10.459c0 .988.592 1.84 1.44 2.222l5.48 13.58c.188.465.64.77 1.143.77h27.111c.508 0 .963-.31 1.148-.783l5.33-13.61A2.44 2.44 0 0043 10.457z" fill="#0749AA"/></svg><svg fill="none" viewBox="0 0 39 39" id="like" xmlns="http://www.w3.org/2000/svg"><path d="M4.062 17.063A4.068 4.068 0 000 21.125v13a4.068 4.068 0 004.062 4.063h4.875c.915 0 1.757-.31 2.438-.823V17.062H4.062zM39 23.156c0-.976-.387-1.886-1.058-2.558a4.035 4.035 0 001.04-3.102c-.19-2.065-2.05-3.684-4.238-3.684H24.706c.498-1.51 1.294-4.277 1.294-6.5 0-3.524-2.995-6.5-4.875-6.5-1.688 0-2.894.951-2.946.99a.817.817 0 00-.304.635v5.51l-4.68 10.14-.195.098v17.417c1.323.624 2.996.96 4.063.96h14.915c1.77 0 3.319-1.192 3.683-2.838.186-.847.078-1.7-.294-2.441a3.64 3.64 0 001.626-4.877A3.638 3.638 0 0039 23.156z" fill="#0749AA"/></svg><svg fill="none" viewBox="0 0 53 54" id="startup" xmlns="http://www.w3.org/2000/svg"><g clip-path="url(#eclip0)" fill="#0749AA"><path d="M26.07 25.711a.72.72 0 100 1.44.72.72 0 000-1.44zM26.07 12.75c-1.99 0-3.6 1.61-3.6 3.6 0 1.985 1.615 3.6 3.6 3.601 1.985 0 3.6-1.615 3.6-3.6 0-1.99-1.61-3.601-3.6-3.601zm2.16 3.6c0 1.191-.969 2.16-2.16 2.16a2.16 2.16 0 112.16-2.16z"/><path d="M26.07 1.228c-.2 0-.39.083-.527.23-.111.12-2.742 2.97-4.85 7.38-1.688 3.534-2.545 7.03-2.545 10.393 0 .753.033 1.52.098 2.285-2.641.684-3.667 2.323-4.058 3.615-.901 2.977.716 6.995 2.731 9.01a.72.72 0 001.23-.51c0-2.044 1.325-3.242 1.791-3.6h.357a25.321 25.321 0 001.632 3.315c.217.367.552.65.946.822a6.817 6.817 0 00-.406 2.345c0 2.621 2.929 6.082 3.053 6.228a.72.72 0 001.096 0c.124-.146 3.052-3.607 3.052-6.228a6.82 6.82 0 00-.405-2.344c.417-.182.74-.476.946-.824a25.328 25.328 0 001.632-3.313h.357c.466.358 1.791 1.555 1.791 3.6a.72.72 0 001.23.51c2.015-2.016 3.632-6.034 2.73-9.01-.39-1.293-1.416-2.932-4.057-3.616.064-.766.097-1.532.097-2.286 0-3.362-.856-6.858-2.545-10.391-2.107-4.41-4.738-7.262-4.85-7.381a.72.72 0 00-.526-.23zm-9.108 30.68c-1.214-1.847-1.975-4.446-1.396-6.36.388-1.278 1.342-2.145 2.84-2.583.26 1.91.711 3.795 1.348 5.627-.013.002-.22-.021-.428.11-.086.055-1.723 1.112-2.364 3.206zm11.268 4.605c0 1.4-1.273 3.412-2.16 4.6-.887-1.188-2.16-3.2-2.16-4.6 0-.784.157-1.536.446-2.16h3.427c.29.624.447 1.376.447 2.16zm.742-3.901c-.11.185-.336.3-.59.3h-4.624c-.254 0-.48-.115-.59-.3a23.372 23.372 0 01-1.309-2.58h8.421a23.357 23.357 0 01-1.308 2.58zm7.601-7.063c.58 1.913-.181 4.512-1.396 6.358-.43-1.406-1.492-2.683-2.379-3.213-.206-.124-.396-.099-.412-.103a29.122 29.122 0 001.348-5.626c1.498.438 2.452 1.305 2.84 2.584zm-4.022-6.319c0 .918-.05 1.855-.151 2.786a27.668 27.668 0 01-1.543 6.576h-9.574a27.662 27.662 0 01-1.543-6.576c-.1-.931-.151-1.868-.151-2.786 0-3.017.746-6.164 2.214-9.36h8.533c1.469 3.196 2.215 6.343 2.215 9.36zM29.63 8.43H22.51a32.374 32.374 0 013.559-5.377 32.368 32.368 0 013.559 5.377z"/><path d="M23.416 38.923v-4.146l.732-.732h4.146l.488 1.463-.488 2.683-.976 1.952-1.707 1.707-.976-.732-1.22-2.195zM33.27 35.792a.72.72 0 00-.72.72l.001 2.881a.72.72 0 001.44 0v-2.88a.72.72 0 00-.72-.72zM18.87 35.792a.72.72 0 00-.72.72l-.001 2.88a.72.72 0 001.44.001v-2.88a.72.72 0 00-.72-.72zM30.39 40.113a.72.72 0 00-.72.72v6.898a.72.72 0 101.44 0v-6.898a.72.72 0 00-.72-.72zM26.317 44.187a.72.72 0 00-.72.72v6.898a.72.72 0 101.44 0v-6.898a.72.72 0 00-.72-.72zM21.749 40.113a.72.72 0 00-.72.72v6.898a.72.72 0 001.44 0v-6.898a.72.72 0 00-.72-.72zM26.07 21.39a.72.72 0 00-.72.72v1.44a.72.72 0 001.44 0v-1.44a.72.72 0 00-.72-.72zM30.001 9.41l-8.293-.244 2.196-3.903 2.439-3.659 1.951 3.171 1.707 4.635zM28.538 17.947l-2.44.975-.487-.244-1.951-.732-.488-1.463.976-2.44H27.562l1.22 1.952-.244 1.952zM19.757 26.971l.976 1.708-.244.488-1.708.975-1.707 1.707v1.464l-.732-.488-1.951-4.146v-3.415l1.951-1.951 2.44-1.22.975 4.878zM33.904 30.874l-1.951-1.464v-1.22l.975-4.39.976-1.22 2.44 1.952.975 1.951v2.927l-.976 1.464-1.463 1.707-.976-1.707z"/></g><defs><clipPath id="eclip0"><path fill="#fff" transform="rotate(-45 32.592 13.5)" d="M0 0h36.868v36.868H0z"/></clipPath></defs></svg><svg fill="none" viewBox="0 0 36 36" id="tel" xmlns="http://www.w3.org/2000/svg"><path d="M30.795 15.107c.043-5.076-4.28-9.729-9.636-10.372-.107-.013-.223-.032-.346-.052a5.01 5.01 0 00-.816-.09c-1.098 0-1.391.772-1.468 1.232-.076.447-.004.823.212 1.117.364.494 1.003.582 1.517.652.15.02.293.04.412.067 4.813 1.075 6.433 2.766 7.225 7.538.02.117.028.26.038.413.034.57.106 1.757 1.382 1.757.106 0 .22-.01.34-.027 1.188-.181 1.15-1.266 1.132-1.787-.005-.147-.01-.286.003-.378a.515.515 0 00.005-.07z" fill="#0749AA"/><path d="M19.686 2.872c.142.01.277.02.39.037 7.903 1.216 11.537 4.96 12.544 12.925.018.136.02.3.023.476.01.622.03 1.916 1.42 1.943h.044c.436 0 .783-.13 1.031-.39.433-.453.403-1.126.378-1.666-.006-.133-.011-.258-.01-.367.1-8.146-6.95-15.533-15.09-15.808a.564.564 0 00-.098.006.68.68 0 01-.096.005c-.082 0-.181-.007-.287-.014C19.807.01 19.662 0 19.515 0c-1.297 0-1.543.921-1.575 1.47-.072 1.27 1.155 1.359 1.746 1.402zM32.239 26.128a24.63 24.63 0 01-.504-.392c-.863-.695-1.781-1.335-2.67-1.954l-.551-.385c-1.137-.799-2.16-1.187-3.126-1.187-1.3 0-2.435.719-3.371 2.136-.415.629-.918.934-1.539.934-.366 0-.783-.104-1.238-.31-3.67-1.665-6.292-4.218-7.79-7.587-.725-1.628-.49-2.692.785-3.558.724-.492 2.072-1.407 1.976-3.16-.108-1.989-4.498-7.976-6.348-8.656-.783-.288-1.606-.29-2.45-.006-2.126.715-3.652 1.97-4.413 3.63-.736 1.604-.702 3.487.096 5.447 2.307 5.664 5.551 10.603 9.642 14.678 4.004 3.99 8.926 7.258 14.628 9.713.514.221 1.053.342 1.447.43.134.03.25.056.334.079.047.013.094.02.142.02h.045c2.683 0 5.903-2.45 6.892-5.245.866-2.446-.716-3.655-1.987-4.627zM20.872 9.343c-.46.011-1.415.035-1.75 1.008-.157.455-.138.85.056 1.174.284.475.83.621 1.326.701 1.799.289 2.723 1.283 2.907 3.13.086.862.666 1.463 1.41 1.463h.001c.055 0 .111-.003.167-.01.896-.107 1.33-.765 1.29-1.955.015-1.243-.636-2.654-1.742-3.778-1.11-1.128-2.448-1.763-3.665-1.733z" fill="#0749AA"/></svg></svg>