<svg xmlns="http://www.w3.org/2000/svg" style="margin:auto;background:#fcfcfc" viewBox="0 0 100 100" preserveAspectRatio="xMidYMid" display="block"><g transform="translate(50 50)"><animateTransform attributeName="transform" type="rotate" values="0;45" keyTimes="0;1" dur="0.2s" repeatCount="indefinite"/><path d="M29.492-5.5h8v11h-8a30 30 0 01-4.75 11.465L30.4 22.62l-7.78 7.78-5.656-5.657A30 30 0 015.5 29.492v8h-11v-8a30 30 0 01-11.465-4.75L-22.62 30.4l-7.78-7.78 5.657-5.656A30 30 0 01-29.492 5.5h-8v-11h8a30 30 0 014.75-11.465L-30.4-22.62l7.779-7.779 5.656 5.657A30 30 0 01-5.5-29.492v-8h11v8a30 30 0 0111.465 4.75L22.62-30.4l7.78 7.78-5.657 5.656A30 30 0 0129.492-5.5M0-20a20 20 0 100 40 20 20 0 100-40" fill="#0749aa"/></g></svg>