<svg width="19" height="19"><path d="M.736 9.5a8.764 8.764 0 1117.528 0 8.764 8.764 0 01-17.528 0z" fill="inherit"/><path d="M0 9.5C0 14.738 4.261 19 9.5 19c5.238 0 9.5-4.262 9.5-9.5C19 4.261 14.738 0 9.5 0 4.261 0 0 4.261 0 9.5zm17.528 0c0 4.427-3.601 8.028-8.028 8.028-4.427 0-8.028-3.601-8.028-8.028 0-4.427 3.602-8.028 8.028-8.028 4.427 0 8.028 3.601 8.028 8.028z" fill="inherit"/><path d="M7.454 5.298a.735.735 0 000 1.038l3.157 3.157-3.157 3.156a.736.736 0 001.038 1.038l3.68-3.68a.736.736 0 000-1.037l-3.68-3.68a.735.735 0 00-1.038.008z" fill="currentColor"/></svg>