<svg width="62" height="62"><path d="M59.599 31C59.599 15.205 46.795 2.401 31 2.401S2.401 15.205 2.401 31s12.804 28.599 28.6 28.599c15.794 0 28.598-12.804 28.598-28.599z" fill="currentColor"/><path d="M62 31c0 17.092-13.906 31-31 31C13.908 62 0 48.092 0 31 0 13.906 13.908 0 31 0c17.094 0 31 13.906 31 31zM4.802 31c0 14.446 11.752 26.197 26.198 26.197S57.197 45.447 57.197 31 45.444 4.802 31 4.802C16.554 4.802 4.802 16.554 4.802 31z" fill="var(--border-color)"/><path d="M23.699 44.53a2.4 2.4 0 010-3.385L34 30.843 23.7 20.542a2.403 2.403 0 01.262-3.386 2.4 2.4 0 013.124 0L39.09 29.162a2.4 2.4 0 010 3.386L27.085 44.554a2.4 2.4 0 01-3.386-.024z" fill="inherit"/></svg>