<svg width="17" height="14"><g clip-path="url(#clip0)" fill="inherit"><path d="M11.35 8.236L9.146 6.772V3.79c0-.3-.274-.542-.613-.542-.338 0-.612.242-.612.542v3.254c0 .17.09.331.245.433l2.449 1.627c.11.073.239.108.367.108.186 0 .37-.074.49-.217.203-.24.148-.58-.122-.759z"/><path d="M8.533 0C4.175 0 .63 3.14.63 7s3.546 7 7.904 7c4.359 0 7.905-3.14 7.905-7s-3.546-7-7.905-7zm0 12.916c-3.682 0-6.68-2.655-6.68-5.916 0-3.261 2.998-5.916 6.68-5.916 3.684 0 6.68 2.655 6.68 5.916 0 3.261-2.997 5.916-6.68 5.916z"/></g><defs><clipPath id="clip0"><path fill="#fff" transform="translate(.63)" d="M0 0h15.808v14H0z"/></clipPath></defs></svg>