<svg width="9" height="17"><path d="M6.864 7.722c-.667-.368-1.376-.65-2.078-.94-.408-.17-.797-.366-1.141-.64-.678-.54-.548-1.418.245-1.766.225-.098.46-.13.7-.144a5.305 5.305 0 012.625.52c.415.2.552.137.692-.295.148-.456.27-.92.407-1.38.092-.309-.02-.512-.312-.642a6.676 6.676 0 00-1.657-.495c-.752-.116-.752-.12-.755-.875C5.586.002 5.586.002 4.519.002c-.155 0-.31-.004-.464 0-.498.014-.582.101-.596.603-.007.225 0 .45-.004.678-.003.667-.007.657-.646.888-1.545.562-2.5 1.615-2.602 3.3-.091 1.493.688 2.5 1.914 3.234.755.453 1.59.72 2.39 1.075.313.137.612.295.872.513.769.635.628 1.692-.285 2.092a2.861 2.861 0 01-1.534.2c-.818-.102-1.601-.316-2.339-.699-.431-.224-.558-.164-.705.302-.127.404-.239.811-.351 1.219-.151.547-.095.677.428.934.667.323 1.38.488 2.107.604.568.09.586.115.593.705.004.267.004.537.007.804.004.337.165.534.513.541.393.007.79.007 1.183-.003.323-.007.488-.183.488-.51 0-.365.017-.733.003-1.098-.017-.373.144-.562.503-.66a3.968 3.968 0 002.068-1.328c1.502-1.826.93-4.497-1.198-5.674z" fill="#0749AA"/></svg>