<svg width="31" height="31"><g clip-path="url(#clip0)"><path d="M15.5 0C6.954 0 0 6.954 0 15.5S6.954 31 15.5 31c4.14 0 8.083-1.67 11.01-4.598.487-.486.433-1.303-.06-1.787l-2.447-2.41c.527-.723.597-1.602.162-2.437a6.622 6.622 0 00-2.62-2.71c-.442-.255-.859-.38-1.274-.38-.162 0-.325.02-.484.058-.527.128-1.035.376-1.551.755a.962.962 0 01-.59.182 1.39 1.39 0 01-.792-.25 18.893 18.893 0 01-3.908-3.909c-.22-.296-.395-.94-.07-1.383.382-.515.628-1.022.756-1.55.138-.57.032-1.145-.32-1.756A6.62 6.62 0 0010.6 6.204a2.422 2.422 0 00-1.124-.291c-.629 0-1.217.274-1.702.79-.445.474-.839.976-1.293 1.584-.416.556-.381 1.199-.352 1.765l.001.012c.052.72.32 1.57.822 2.599.847 1.744 2.051 3.4 3.68 5.061.335.342 1.669 1.677 2.012 2.012 1.662 1.63 3.318 2.833 5.061 3.68 1.03.502 1.88.77 2.6.822h.012c.148.008.306.016.46.016.367 0 .838-.045 1.262-.342l1.61 1.586a12.803 12.803 0 01-8.149 2.908c-7.116 0-12.906-5.79-12.906-12.906 0-7.116 5.79-12.906 12.906-12.906 7.116 0 12.906 5.79 12.906 12.906a1.297 1.297 0 102.594 0C31 6.954 24.046 0 15.5 0z" fill="inherit"/></g><defs><clipPath id="clip0"><path fill="#fff" d="M0 0h31v31H0z"/></clipPath></defs></svg>