<svg width="36" height="36"><g clip-path="url(#clip0)" fill="#0749AA"><path d="M32.342 13.185h-.057c-1.114 0-2.017 1.007-2.017 2.242v1.685a.568.568 0 01-.563.572.568.568 0 01-.563-.572V14c0-1.235-.895-2.24-2.009-2.24-1.12 0-2.014 1.005-2.014 2.24v3.297a.568.568 0 01-.563.573.568.568 0 01-.563-.573v-4.202c0-1.235-.933-2.2-2.046-2.2h-.061c-1.087 0-1.997.915-1.997 2.108v4.733a.568.568 0 01-.563.572.568.568 0 01-.563-.572v-4.598l-.002-.044.002-.11V2.24c0-1.235-.918-2.24-2.03-2.24C15.618 0 14.7 1.004 14.7 2.238l-.012 17.816c0 .242-.15.458-.374.539a.557.557 0 01-.625-.176l-2.093-2.59a3.207 3.207 0 00-2.273-1.222 3.124 3.124 0 00-2.37.863l-.021.018-.432.361 7.27 14.19c1.151 2.248 3.33 3.636 5.684 3.636h8.388c3.59 0 6.513-3.188 6.516-7.118l.006-4.83c.004-3.356.006-4.612-.003-8.306-.003-1.23-.909-2.234-2.02-2.234z"/><path d="M22.223 5.17h8.536l-1.633 1.66a.58.58 0 000 .81c.22.224.576.224.796 0l2.585-2.627a.58.58 0 000-.81l-2.585-2.627a.557.557 0 00-.796 0 .58.58 0 000 .81l1.614 1.64h-8.517a.568.568 0 00-.564.572c0 .316.252.572.564.572zm-19.566 0h8.463c.31 0 .563-.256.563-.572a.568.568 0 00-.563-.572H2.676l1.614-1.64a.58.58 0 000-.81.557.557 0 00-.796 0L.909 4.203a.58.58 0 000 .81L3.494 7.64c.22.224.576.224.796 0a.579.579 0 000-.81L2.657 5.17z"/></g><defs><clipPath id="clip0"><path fill="#fff" d="M0 0h35.099v35.673H0z"/></clipPath></defs></svg>