<svg width="13" height="10"><g clip-path="url(#clip0)" fill="inherit"><path d="M11.692 4.61H1.282c-.243 0-.44.174-.44.39 0 .216.197.39.44.39h10.41c.244 0 .441-.174.441-.39 0-.216-.197-.39-.44-.39zm0-3.126H1.282c-.243 0-.44.175-.44.391 0 .216.197.39.44.39h10.41c.244 0 .441-.174.441-.39 0-.216-.197-.39-.44-.39zm0 6.25H1.282c-.243 0-.44.175-.44.391 0 .216.197.39.44.39h10.41c.244 0 .441-.174.441-.39 0-.216-.197-.39-.44-.39z"/></g><defs><clipPath id="clip0"><path fill="#fff" transform="translate(.842)" d="M0 0h11.292v10H0z"/></clipPath></defs></svg>